<svg width="102" height="102" viewBox="0 0 102 102" fill="none" xmlns="http://www.w3.org/2000/svg">
<path fill-rule="evenodd" clip-rule="evenodd" d="M19 6.33333C19 2.83553 21.8355 0 25.3333 0C28.8311 0 31.6667 2.83553 31.6667 6.33333V12.6667H69.6667V6.33333C69.6667 2.83553 72.5022 0 76 0C79.4978 0 82.3333 2.83553 82.3333 6.33333V12.6667H95C98.4978 12.6667 101.333 15.5022 101.333 19V95C101.333 98.4978 98.4978 101.333 95 101.333H6.33333C2.83553 101.333 0 98.4978 0 95V19C0 15.5022 2.83553 12.6667 6.33333 12.6667H19V6.33333ZM88.6667 25.3333H12.6667V88.6667H88.6667V25.3333Z" fill="#475284"/>
</svg>
