<svg width="62" height="62" viewBox="0 0 62 62" fill="none" xmlns="http://www.w3.org/2000/svg">
<path fill-rule="evenodd" clip-rule="evenodd" d="M34.8309 0.885742C36.5616 0.885742 38.0702 2.06362 38.49 3.74264L39.3353 7.11971C39.5882 8.13006 40.6122 8.74409 41.6226 8.4912C41.8026 8.44613 41.9751 8.37471 42.1343 8.27928L45.1206 6.48912C46.6046 5.59868 48.5043 5.83254 49.7281 7.05632L55.062 12.3903C56.2858 13.614 56.5197 15.5137 55.6292 16.9977L53.8377 19.9804C53.3015 20.8733 53.5905 22.0318 54.4834 22.5681C54.6427 22.6638 54.8153 22.7354 54.9956 22.7806L58.3757 23.6283C60.0548 24.0481 61.2327 25.5567 61.2327 27.2874V34.8307C61.2327 36.5614 60.0548 38.07 58.3757 38.4897L54.9967 39.3349C53.9864 39.5877 53.3722 40.6117 53.6249 41.622C53.6701 41.8025 53.7417 41.9754 53.8374 42.1349L55.6292 45.1203C56.5197 46.6044 56.2858 48.504 55.062 49.7278L49.7281 55.0617C48.5043 56.2855 46.6046 56.5193 45.1206 55.6289L42.1351 53.8371C41.2421 53.3011 40.0837 53.5905 39.5477 54.4836C39.452 54.6431 39.3803 54.8159 39.3352 54.9964L38.49 58.3754C38.0702 60.0544 36.5616 61.2323 34.8309 61.2323H27.2875C25.5568 61.2323 24.0482 60.0544 23.6284 58.3754L22.7808 54.9953C22.5274 53.9851 21.5031 53.3715 20.4928 53.6249C20.3125 53.6701 20.1399 53.7417 19.9806 53.8374L16.9978 55.6289C15.5138 56.5193 13.6141 56.2855 12.3903 55.0617L7.05636 49.7278C5.83257 48.504 5.59871 46.6044 6.48915 45.1203L8.27932 42.134C8.81483 41.2407 8.52477 40.0824 7.63146 39.5469C7.47225 39.4515 7.29982 39.3801 7.11975 39.335L3.74266 38.4897C2.06363 38.07 0.885742 36.5614 0.885742 34.8307V27.2874C0.885742 25.5567 2.06363 24.0481 3.74266 23.6283L7.12086 22.7805C8.13106 22.527 8.74448 21.5026 8.49097 20.4924C8.44583 20.3126 8.37441 20.1403 8.27901 19.9813L6.48915 16.9977C5.59871 15.5137 5.83257 13.614 7.05636 12.3903L12.3903 7.05632C13.6141 5.83254 15.5138 5.59868 16.9978 6.48912L19.9814 8.27896C20.8746 8.81475 22.0329 8.52507 22.5687 7.63194C22.6641 7.47291 22.7355 7.30069 22.7807 7.12082L23.6284 3.74264C24.0482 2.06362 25.5568 0.885742 27.2875 0.885742H34.8309ZM31.8871 8.42897H30.2298L30.0974 8.95681C29.8717 9.85614 29.5146 10.7173 29.0376 11.5124C26.3586 15.978 20.5667 17.4265 16.1011 14.7475L15.6423 14.4723L14.4727 15.642L14.7479 16.1007C15.2248 16.8958 15.5819 17.7569 15.8076 18.6563C17.0752 23.7072 14.0081 28.8294 8.95711 30.0969L8.42928 30.2294V31.8866L8.95156 32.0174C9.8519 32.2427 10.714 32.5998 11.5101 33.077C15.9766 35.7545 17.4269 41.5458 14.7494 46.0124L14.472 46.4752L15.6412 47.6444L16.0967 47.3708C16.8934 46.8922 17.7565 46.5341 18.658 46.308C23.7092 45.0413 28.8309 48.1091 30.0977 53.1603L30.2303 53.6889H31.8866L32.0175 53.1658C32.2432 52.2633 32.6013 51.3992 33.08 50.6016C35.7599 46.1365 41.5521 44.6893 46.0172 47.3692L46.4769 47.6451L47.6456 46.4764L47.3698 46.0167C46.891 45.2191 46.5329 44.3549 46.3072 43.4525C45.0435 38.4006 48.1144 33.2807 53.1664 32.017L53.6895 31.8862V30.2298L53.1608 30.0973C52.2594 29.8712 51.3963 29.5131 50.5995 29.0345C46.1353 26.3532 44.69 20.5606 47.3713 16.0964L47.6449 15.6408L46.4757 14.4716L46.0129 14.7491C45.2169 15.2263 44.3547 15.5833 43.4544 15.8087C38.4026 17.0732 33.2823 14.003 32.0178 8.95126L31.8871 8.42897Z" fill="#363D63"/>
</svg>
