<svg width="24" height="24" viewBox="0 0 24 24" fill="none" xmlns="http://www.w3.org/2000/svg">
<path fill-rule="evenodd" clip-rule="evenodd" d="M12 18C11.4478 18 11.0002 17.5524 11.0002 17.0002V12.9998H6.99977C6.44761 12.9998 6 12.5522 6 12C6 11.4478 6.44761 11.0002 6.99976 11.0002H11.0002V6.99977C11.0002 6.44761 11.4478 6 12 6C12.5522 6 12.9998 6.44761 12.9998 6.99976V11.0002H17.0002C17.5524 11.0002 18 11.4478 18 12C18 12.5522 17.5524 12.9998 17.0002 12.9998H12.9998V17.0002C12.9998 17.5524 12.5522 18 12 18Z" fill="#475284"/>
</svg>
