<svg width="120" height="120" viewBox="0 0 120 120" fill="none" xmlns="http://www.w3.org/2000/svg">
<g filter="url(#filter0_d_50_2391)">
<circle cx="60" cy="53" r="35" fill="#6761A8"/>
<circle cx="60" cy="53" r="37.5" stroke="#FEFEFE" stroke-width="5"/>
</g>
<path d="M77.8911 69.0391L80.1979 68.0754C79.9997 67.6011 79.71 67.1705 79.3453 66.8084C79.3429 66.806 79.3406 66.8037 79.3382 66.8013L72.9241 60.3864C74.9971 57.1353 75.9911 53.2882 75.726 49.4015C75.4084 44.745 73.3079 40.3902 69.8615 37.2431C66.4152 34.0959 61.8882 32.3987 57.2223 32.5047C52.5565 32.6106 48.1112 34.5116 44.8112 37.8119C41.5112 41.1123 39.6106 45.5579 39.5047 50.224C39.3987 54.8901 41.0956 59.4175 44.2424 62.8642C47.3892 66.311 51.7437 68.4117 56.3999 68.7294C60.2861 68.9945 64.1328 68.0004 67.3836 65.9274L73.8082 72.3527L73.8093 72.3538C74.544 73.0877 75.5401 73.5 76.5786 73.5C77.615 73.5 78.609 73.0895 79.3433 72.3585C79.7089 71.9959 79.9994 71.5646 80.1979 71.0894C80.3973 70.612 80.5 70.0998 80.5 69.5824C80.5 69.065 80.3973 68.5528 80.1979 68.0754L77.8911 69.0391ZM47.3944 50.6611L47.3944 50.6567C47.3892 48.9666 47.8011 47.3014 48.5935 45.8087C49.386 44.3161 50.5345 43.0421 51.9373 42.0998C53.34 41.1575 54.9535 40.576 56.6347 40.4068C58.316 40.2376 60.013 40.486 61.5753 41.13C63.1375 41.7739 64.5168 42.7935 65.5907 44.0984C66.6645 45.4032 67.3999 46.953 67.7313 48.6102C68.0628 50.2674 67.9803 51.9809 67.491 53.5985C67.0017 55.2162 66.1208 56.688 64.9264 57.8835L64.9233 57.8867C63.4911 59.3253 61.6645 60.3067 59.6746 60.7067C57.6846 61.1067 55.6208 60.9073 53.7442 60.1338C51.8675 59.3603 50.2625 58.0474 49.1322 56.3611C48.0019 54.6749 47.3971 52.6913 47.3944 50.6611Z" fill="#363D63" stroke="#FEFEFE" stroke-width="5"/>
<defs>
<filter id="filter0_d_50_2391" x="0" y="0" width="120" height="120" filterUnits="userSpaceOnUse" color-interpolation-filters="sRGB">
<feFlood flood-opacity="0" result="BackgroundImageFix"/>
<feColorMatrix in="SourceAlpha" type="matrix" values="0 0 0 0 0 0 0 0 0 0 0 0 0 0 0 0 0 0 127 0" result="hardAlpha"/>
<feOffset dy="7"/>
<feGaussianBlur stdDeviation="10"/>
<feComposite in2="hardAlpha" operator="out"/>
<feColorMatrix type="matrix" values="0 0 0 0 0 0 0 0 0 0 0 0 0 0 0 0 0 0 0.08 0"/>
<feBlend mode="normal" in2="BackgroundImageFix" result="effect1_dropShadow_50_2391"/>
<feBlend mode="normal" in="SourceGraphic" in2="effect1_dropShadow_50_2391" result="shape"/>
</filter>
</defs>
</svg>
