<svg width="22" height="22" viewBox="0 0 22 22" fill="none" xmlns="http://www.w3.org/2000/svg">
<path d="M18 5.70138V17.8918C18 18.1857 17.878 18.4676 17.6608 18.6754C17.4436 18.8832 17.149 19 16.8419 19H6.03309C5.72594 19 5.43138 18.8832 5.2142 18.6754C4.99701 18.4676 4.875 18.1857 4.875 17.8918V3.11554C4.875 2.82162 4.99701 2.53974 5.2142 2.33191C5.43138 2.12408 5.72594 2.00732 6.03309 2.00732H14.1397L18 5.70138Z" stroke="#5E6893" stroke-width="1.4" stroke-linecap="round" stroke-linejoin="round"/>
<path d="M14.1396 2.00732V4.59316C14.1396 4.88708 14.2617 5.16896 14.4788 5.37679C14.696 5.58462 14.9906 5.70138 15.2977 5.70138H17.9999" stroke="#5E6893" stroke-width="1.4" stroke-linecap="round" stroke-linejoin="round"/>
<path d="M7.96313 9.39539H14.9117" stroke="#5E6893" stroke-width="1.4" stroke-linecap="round" stroke-linejoin="round"/>
<path d="M7.96313 11.6119H14.9117" stroke="#5E6893" stroke-width="1.4" stroke-linecap="round" stroke-linejoin="round"/>
<path d="M7.96313 13.8284H14.9117" stroke="#5E6893" stroke-width="1.4" stroke-linecap="round" stroke-linejoin="round"/>
<path d="M7.96313 16.0448H11.8234" stroke="#5E6893" stroke-width="1.4" stroke-linecap="round" stroke-linejoin="round"/>
</svg>
