<svg width="22" height="22" viewBox="0 0 22 22" fill="none" xmlns="http://www.w3.org/2000/svg">
<path d="M18 5.48399V16.957C18 17.2336 17.878 17.4989 17.6608 17.6945C17.4436 17.8901 17.149 18 16.8419 18H6.03309C5.72594 18 5.43138 17.8901 5.2142 17.6945C4.99701 17.4989 4.875 17.2336 4.875 16.957V3.05032C4.875 2.7737 4.99701 2.50841 5.2142 2.31281C5.43138 2.11721 5.72594 2.00732 6.03309 2.00732H14.1397L18 5.48399Z" stroke="#5E6893" stroke-width="1.4" stroke-linecap="round" stroke-linejoin="round"/>
<path d="M14.1396 2.00732V4.44099C14.1396 4.71761 14.2617 4.9829 14.4788 5.1785C14.696 5.3741 14.9906 5.48399 15.2977 5.48399H17.9999" stroke="#5E6893" stroke-width="1.4" stroke-linecap="round" stroke-linejoin="round"/>
<path d="M7.96313 8.96069H14.9117" stroke="#5E6893" stroke-width="1.4" stroke-linecap="round" stroke-linejoin="round"/>
<path d="M7.96313 11.0466H14.9117" stroke="#5E6893" stroke-width="1.4" stroke-linecap="round" stroke-linejoin="round"/>
<path d="M7.96313 13.1327H14.9117" stroke="#5E6893" stroke-width="1.4" stroke-linecap="round" stroke-linejoin="round"/>
<path d="M7.96313 15.2188H11.8234" stroke="#5E6893" stroke-width="1.4" stroke-linecap="round" stroke-linejoin="round"/>
</svg>
