<svg width="26" height="27" viewBox="0 0 26 27" fill="none" xmlns="http://www.w3.org/2000/svg">
<path d="M13.2032 13.4036C15.73 13.4036 17.7783 11.3552 17.7783 8.82844C17.7783 6.30166 15.73 4.2533 13.2032 4.2533C10.6764 4.2533 8.62805 6.30166 8.62805 8.82844C8.62805 11.3552 10.6764 13.4036 13.2032 13.4036Z" stroke="#6761A8" stroke-width="1.5" stroke-linecap="round" stroke-linejoin="round"/>
<path d="M13.2031 15.0673C10.7882 15.1334 8.42177 15.7599 6.29049 16.8973C5.74205 17.1756 5.28147 17.6005 4.95989 18.1247C4.6383 18.6489 4.4683 19.252 4.46875 19.867V20.4743C4.46875 20.8052 4.60021 21.1226 4.83421 21.3566C5.06822 21.5906 5.38559 21.722 5.71652 21.722H20.6897C21.0207 21.722 21.338 21.5906 21.572 21.3566C21.806 21.1226 21.9375 20.8052 21.9375 20.4743V19.867C21.938 19.252 21.7679 18.6489 21.4464 18.1247C21.1248 17.6005 20.6642 17.1756 20.1158 16.8973C17.9845 15.7599 15.618 15.1334 13.2031 15.0673V15.0673Z" stroke="#6761A8" stroke-width="1.5" stroke-linecap="round" stroke-linejoin="round"/>
</svg>
