<svg width="22" height="22" viewBox="0 0 22 22" fill="none" xmlns="http://www.w3.org/2000/svg">
<path d="M19 5.91877V18.8266C19 19.1378 18.8687 19.4362 18.6349 19.6563C18.4012 19.8764 18.0842 20 17.7537 20H6.12132C5.79078 20 5.47377 19.8764 5.24004 19.6563C5.00631 19.4362 4.875 19.1378 4.875 18.8266V3.18076C4.875 2.86954 5.00631 2.57108 5.24004 2.35102C5.47377 2.13095 5.79078 2.00732 6.12132 2.00732H14.8456L19 5.91877Z" stroke="#5E6893" stroke-width="1.4" stroke-linecap="round" stroke-linejoin="round"/>
<path d="M14.8456 2.00732V4.74534C14.8456 5.05655 14.9769 5.35502 15.2106 5.57508C15.4444 5.79514 15.7614 5.91877 16.0919 5.91877H19" stroke="#5E6893" stroke-width="1.4" stroke-linecap="round" stroke-linejoin="round"/>
<path d="M8.19849 9.8302H15.6764" stroke="#5E6893" stroke-width="1.4" stroke-linecap="round" stroke-linejoin="round"/>
<path d="M8.19849 12.1771H15.6764" stroke="#5E6893" stroke-width="1.4" stroke-linecap="round" stroke-linejoin="round"/>
<path d="M8.19849 14.5239H15.6764" stroke="#5E6893" stroke-width="1.4" stroke-linecap="round" stroke-linejoin="round"/>
<path d="M8.19849 16.8708H12.3529" stroke="#5E6893" stroke-width="1.4" stroke-linecap="round" stroke-linejoin="round"/>
</svg>
