<svg width="26" height="27" viewBox="0 0 26 27" fill="none" xmlns="http://www.w3.org/2000/svg">
<path d="M21.125 7.3838V23.1559C21.125 23.5362 20.974 23.9009 20.7051 24.1698C20.4362 24.4387 20.0715 24.5897 19.6912 24.5897H6.30883C5.92855 24.5897 5.56385 24.4387 5.29496 24.1698C5.02606 23.9009 4.875 23.5362 4.875 23.1559V4.0382C4.875 3.65792 5.02606 3.29322 5.29496 3.02433C5.56385 2.75543 5.92855 2.60437 6.30883 2.60437H16.3456L21.125 7.3838Z" stroke="#5E6893" stroke-width="1.4" stroke-linecap="round" stroke-linejoin="round"/>
<path d="M16.3456 2.60437V5.94997C16.3456 6.33024 16.4966 6.69494 16.7655 6.96384C17.0344 7.23273 17.3991 7.38379 17.7794 7.38379H21.125" stroke="#5E6893" stroke-width="1.4" stroke-linecap="round" stroke-linejoin="round"/>
<path d="M8.69849 12.1632H17.3015" stroke="#5E6893" stroke-width="1.4" stroke-linecap="round" stroke-linejoin="round"/>
<path d="M8.69849 15.0309H17.3015" stroke="#5E6893" stroke-width="1.4" stroke-linecap="round" stroke-linejoin="round"/>
<path d="M8.69849 17.8986H17.3015" stroke="#5E6893" stroke-width="1.4" stroke-linecap="round" stroke-linejoin="round"/>
<path d="M8.69849 20.7662H13.4779" stroke="#5E6893" stroke-width="1.4" stroke-linecap="round" stroke-linejoin="round"/>
</svg>
