<svg width="59" height="59" viewBox="0 0 59 59" fill="none" xmlns="http://www.w3.org/2000/svg">
<g filter="url(#filter0_d_50_1283)">
<circle cx="29.5" cy="25.5" r="17.5" fill="white"/>
</g>
<path d="M29.5 34C24.9875 34 21.3063 30.4058 21.3063 26C21.3063 24.0676 22.0188 22.1739 23.3646 20.7053L24.2354 21.4783C23.0875 22.715 22.4938 24.3382 22.4938 26C22.4938 29.7874 25.6209 32.8406 29.5 32.8406C30.5292 32.8406 31.5188 32.6474 32.4292 32.2222L32.9042 33.2657C31.8354 33.7681 30.6875 34 29.5 34Z" fill="#5E6893"/>
<path d="M35.5958 31.3333L34.725 30.5604C35.8729 29.3237 36.5062 27.7005 36.5062 26C36.5062 22.2126 33.3792 19.1594 29.5 19.1594C28.4708 19.1594 27.4812 19.3527 26.5708 19.7778L26.0958 18.7343C27.1646 18.2705 28.3125 18 29.5 18C34.0125 18 37.6937 21.5942 37.6937 26C37.6937 27.971 36.9417 29.8647 35.5958 31.3333Z" fill="#5E6893"/>
<path d="M25.0667 25.3817H23.8V21.6715H20V20.4348H25.0667V25.3817Z" fill="#5E6893"/>
<path d="M39 31.5653H33.9333V26.6184H35.2V30.3286H39V31.5653Z" fill="#5E6893"/>
<defs>
<filter id="filter0_d_50_1283" x="0" y="0" width="59" height="59" filterUnits="userSpaceOnUse" color-interpolation-filters="sRGB">
<feFlood flood-opacity="0" result="BackgroundImageFix"/>
<feColorMatrix in="SourceAlpha" type="matrix" values="0 0 0 0 0 0 0 0 0 0 0 0 0 0 0 0 0 0 127 0" result="hardAlpha"/>
<feOffset dy="4"/>
<feGaussianBlur stdDeviation="6"/>
<feComposite in2="hardAlpha" operator="out"/>
<feColorMatrix type="matrix" values="0 0 0 0 0 0 0 0 0 0 0 0 0 0 0 0 0 0 0.25 0"/>
<feBlend mode="normal" in2="BackgroundImageFix" result="effect1_dropShadow_50_1283"/>
<feBlend mode="normal" in="SourceGraphic" in2="effect1_dropShadow_50_1283" result="shape"/>
</filter>
</defs>
</svg>
