<svg width="59" height="59" viewBox="0 0 59 59" fill="none" xmlns="http://www.w3.org/2000/svg">
<g filter="url(#filter0_d_50_1351)">
<circle cx="29.5" cy="25.5" r="17.5" fill="white"/>
</g>
<path fill-rule="evenodd" clip-rule="evenodd" d="M31.2929 30.7071C30.9024 30.3166 30.9024 29.6834 31.2929 29.2929L33.5858 27H24C23.4477 27 23 26.5523 23 26C23 25.4477 23.4477 25 24 25H33.5858L31.2929 22.7071C30.9024 22.3166 30.9024 21.6834 31.2929 21.2929C31.6834 20.9024 32.3166 20.9024 32.7071 21.2929L36.7071 25.2929C37.0976 25.6834 37.0976 26.3166 36.7071 26.7071L32.7071 30.7071C32.3166 31.0976 31.6834 31.0976 31.2929 30.7071Z" fill="#475284"/>
<defs>
<filter id="filter0_d_50_1351" x="0" y="0" width="59" height="59" filterUnits="userSpaceOnUse" color-interpolation-filters="sRGB">
<feFlood flood-opacity="0" result="BackgroundImageFix"/>
<feColorMatrix in="SourceAlpha" type="matrix" values="0 0 0 0 0 0 0 0 0 0 0 0 0 0 0 0 0 0 127 0" result="hardAlpha"/>
<feOffset dy="4"/>
<feGaussianBlur stdDeviation="6"/>
<feComposite in2="hardAlpha" operator="out"/>
<feColorMatrix type="matrix" values="0 0 0 0 0 0 0 0 0 0 0 0 0 0 0 0 0 0 0.25 0"/>
<feBlend mode="normal" in2="BackgroundImageFix" result="effect1_dropShadow_50_1351"/>
<feBlend mode="normal" in="SourceGraphic" in2="effect1_dropShadow_50_1351" result="shape"/>
</filter>
</defs>
</svg>
