<svg width="236" height="67" viewBox="0 0 236 67" fill="none" xmlns="http://www.w3.org/2000/svg">
<path d="M19.2897 53.946C15.5843 53.946 11.9879 53.4873 8.50053 52.5697C5.01313 51.6521 2.17962 50.4287 0 48.8994L4.25026 39.3304C6.29911 40.6849 8.6749 41.7772 11.3776 42.6074C14.0804 43.4376 16.7395 43.8527 19.355 43.8527C24.3246 43.8527 26.8094 42.6074 26.8094 40.1168C26.8094 38.806 26.0901 37.8447 24.6515 37.233C23.2566 36.5776 20.9898 35.9004 17.8511 35.2013C14.4073 34.4585 11.5302 33.672 9.2198 32.8418C6.9094 31.9679 4.92595 30.5915 3.26943 28.7127C1.61292 26.8338 0.784664 24.2996 0.784664 21.1099C0.784664 18.3135 1.54753 15.8011 3.07327 13.5727C4.599 11.3006 6.86581 9.5091 9.87369 8.19827C12.9252 6.88745 16.6523 6.23204 21.0552 6.23204C24.063 6.23204 27.0273 6.58159 29.948 7.2807C32.8687 7.93611 35.4407 8.91923 37.6639 10.23L33.6752 19.8646C29.3159 17.5051 25.0875 16.3254 20.9898 16.3254C18.4178 16.3254 16.5433 16.7186 15.3663 17.5051C14.1893 18.2479 13.6008 19.231 13.6008 20.4545C13.6008 21.6779 14.2983 22.5955 15.6933 23.2072C17.0882 23.8189 19.3333 24.4525 22.4283 25.1079C25.9157 25.8507 28.7928 26.659 31.0596 27.5329C33.37 28.3631 35.3535 29.7176 37.01 31.5965C38.7101 33.4316 39.5602 35.9441 39.5602 39.1337C39.5602 41.8865 38.7973 44.377 37.2715 46.6054C35.7458 48.8338 33.4572 50.6253 30.4057 51.9798C27.3543 53.2906 23.6489 53.946 19.2897 53.946Z" fill="#475284"/>
<path d="M44.9522 17.5051H57.376V53.0285H44.9522V17.5051ZM51.1641 13.5727C48.8973 13.5727 47.0664 12.9391 45.6714 11.672C44.2765 10.4048 43.579 8.83184 43.579 6.95299C43.579 5.07414 44.2765 3.50115 45.6714 2.23402C47.0664 0.966893 48.8973 0.333328 51.1641 0.333328C53.4309 0.333328 55.2618 0.945046 56.6567 2.16848C58.0517 3.34822 58.7492 4.87752 58.7492 6.75637C58.7492 8.7226 58.0517 10.3611 56.6567 11.672C55.2618 12.9391 53.4309 13.5727 51.1641 13.5727Z" fill="#475284"/>
<path d="M103.572 17.5051V46.5399C103.572 53.1377 101.784 58.0751 98.2097 61.3522C94.6351 64.673 89.4912 66.3333 82.778 66.3333C79.2906 66.3333 76.0211 65.9401 72.9697 65.1536C69.9182 64.3671 67.3245 63.2092 65.1884 61.6799L69.7002 52.9629C71.1388 54.1427 72.9479 55.0602 75.1275 55.7157C77.3507 56.4148 79.5303 56.7643 81.6664 56.7643C84.9358 56.7643 87.3334 56.0434 88.8591 54.6015C90.3849 53.1595 91.1477 51.0185 91.1477 48.1784V46.9987C88.7501 49.7951 85.241 51.1933 80.6201 51.1933C77.4815 51.1933 74.5826 50.4942 71.9235 49.096C69.2643 47.6541 67.1501 45.6442 65.5808 43.0662C64.0114 40.4446 63.2268 37.4297 63.2268 34.0215C63.2268 30.6571 64.0114 27.6859 65.5808 25.1079C67.1501 22.4863 69.2643 20.4763 71.9235 19.0781C74.5826 17.6362 77.4815 16.9153 80.6201 16.9153C85.6769 16.9153 89.3822 18.5538 91.7362 21.8308V17.5051H103.572ZM83.5626 41.2966C85.7859 41.2966 87.6167 40.6193 89.0553 39.2648C90.5374 37.9103 91.2785 36.1625 91.2785 34.0215C91.2785 31.8805 90.5592 30.1546 89.1207 28.8438C87.6821 27.4892 85.8294 26.812 83.5626 26.812C81.2958 26.812 79.4214 27.4892 77.9392 28.8438C76.5007 30.1546 75.7814 31.8805 75.7814 34.0215C75.7814 36.1625 76.5225 37.9103 78.0046 39.2648C79.4867 40.6193 81.3394 41.2966 83.5626 41.2966Z" fill="#475284"/>
<path d="M134.636 16.9153C139.039 16.9153 142.57 18.2261 145.229 20.8477C147.932 23.4694 149.283 27.4237 149.283 32.7107V53.0285H136.86V34.7425C136.86 29.8924 134.92 27.4674 131.04 27.4674C128.904 27.4674 127.182 28.1665 125.874 29.5647C124.61 30.9629 123.978 33.0602 123.978 35.8567V53.0285H111.554V17.5051H123.389V21.3721C124.784 19.9302 126.441 18.8378 128.359 18.095C130.277 17.3085 132.37 16.9153 134.636 16.9153Z" fill="#475284"/>
<path d="M176.701 7.14961H189.648V53.0285H176.701V7.14961Z" fill="#475284"/>
<path d="M221.353 16.9153C225.756 16.9153 229.287 18.2261 231.946 20.8477C234.649 23.4694 236 27.4237 236 32.7107V53.0285H223.576V34.7425C223.576 29.8924 221.636 27.4674 217.757 27.4674C215.621 27.4674 213.899 28.1665 212.591 29.5647C211.327 30.9629 210.695 33.0602 210.695 35.8567V53.0285H198.271V17.5051H210.106V21.3721C211.501 19.9302 213.158 18.8378 215.076 18.095C216.994 17.3085 219.086 16.9153 221.353 16.9153Z" fill="#475284"/>
</svg>
